HIERARCHY
ROOT Hips
{
	OFFSET 0.000000 0.000000 0.000000 
	CHANNELS 6 Xposition Yposition Zposition Zrotation Yrotation Xrotation
	JOINT LeftUpLeg
	{
		OFFSET 1.363060 -1.794630 0.839290 
		CHANNELS 3 Zrotation Yrotation Xrotation
		JOINT LeftLeg
		{
			OFFSET 2.448110 -6.726130 0.000000 
			CHANNELS 3 Zrotation Yrotation Xrotation
			JOINT LeftFoot
			{
				OFFSET 2.562200 -7.039590 0.000000 
				CHANNELS 3 Zrotation Yrotation Xrotation
				JOINT LeftToeBase
				{
					OFFSET 0.157640 -0.433110 2.322550 
					CHANNELS 3 Zrotation Yrotation Xrotation
					End Site
					{
						OFFSET 0.000000 0.000000 0.000000 
					}
				}
			}
		}
	}
	JOINT RightUpLeg
	{
		OFFSET -1.305520 -1.794630 0.839290 
		CHANNELS 3 Zrotation Yrotation Xrotation
		JOINT RightLeg
		{
			OFFSET -2.542530 -6.985550 0.000000 
			CHANNELS 3 Zrotation Yrotation Xrotation
			JOINT RightFoot
			{
				OFFSET -2.568260 -7.056230 0.000000 
				CHANNELS 3 Zrotation Yrotation Xrotation
				JOINT RightToeBase
				{
					OFFSET -0.164730 -0.452590 2.363150 
					CHANNELS 3 Zrotation Yrotation Xrotation
					End Site
					{
						OFFSET 0.000000 0.000000 0.000000 
					}
				}
			}
		}
	}
	JOINT Spine
	{
		OFFSET 0.028270 2.035590 -0.193380 
		CHANNELS 3 Zrotation Yrotation Xrotation
		JOINT Spine1
		{
			OFFSET 0.056720 2.048850 -0.042750 
			CHANNELS 3 Zrotation Yrotation Xrotation
			JOINT Neck1
			{
				OFFSET -0.054170 1.746240 0.172020 
				CHANNELS 3 Zrotation Yrotation Xrotation
				JOINT Head
				{
					OFFSET 0.104070 1.761360 -0.123970 
					CHANNELS 3 Zrotation Yrotation Xrotation
					End Site
					{
						OFFSET 0.000000 0.000000 0.000000 
					}
				}
			}
			JOINT LeftArm
			{
				OFFSET 3.362410 1.200890 -0.311210 
				CHANNELS 3 Zrotation Yrotation Xrotation
				JOINT LeftForeArm
				{
					OFFSET 4.983000 -0.000000 -0.000000 
					CHANNELS 3 Zrotation Yrotation Xrotation
					JOINT LeftHand
					{
						OFFSET 3.483560 -0.000000 -0.000000 
						CHANNELS 3 Zrotation Yrotation Xrotation
						JOINT LeftHandIndex1
						{
							OFFSET 0.715260 -0.000000 -0.000000 
							CHANNELS 3 Zrotation Yrotation Xrotation
							End Site
							{
								OFFSET 0.000000 0.000000 0.000000 
							}
						}
					}
				}
			}
			JOINT RightArm
			{
				OFFSET -3.136600 1.374050 -0.404650 
				CHANNELS 3 Zrotation Yrotation Xrotation
				JOINT RightForeArm
				{
					OFFSET -5.241900 -0.000000 -0.000000 
					CHANNELS 3 Zrotation Yrotation Xrotation
					JOINT RightHand
					{
						OFFSET -3.444170 -0.000000 -0.000000 
						CHANNELS 3 Zrotation Yrotation Xrotation
						JOINT RightHandIndex1
						{
							OFFSET -0.622530 -0.000000 -0.000000 
							CHANNELS 3 Zrotation Yrotation Xrotation
							End Site
							{
								OFFSET 0.000000 0.000000 0.000000 
							}
						}
					}
				}
			}
		}
	}
}
MOTION
Frames: 13
Frame Time: 0.041667
-0.972509 18.231388 -1.134249 -177.037854 60.175995 -138.447933 9.442336 -36.596257 -52.758538 -0.534568 7.871255 15.896275 -0.260112 7.749562 10.796057 1.098300 -6.659300 -18.709800 9.666319 11.601306 -36.558365 0.875707 -4.830748 13.642815 10.158222 -32.934533 -18.371851 -0.228700 -3.078100 8.496200 -16.797381 7.478121 45.425013 4.565826 3.904350 -38.520296 -4.757701 4.807448 -13.513187 -0.784400 3.165900 -1.576500 -52.537363 -10.697341 55.695542 160.783837 -31.376626 -116.899533 -4.286426 -4.244689 -58.447110 -7.125000 0.000000 0.000000 44.604095 9.547197 46.029388 -161.497783 28.030811 -115.655828 0.207936 3.463635 -55.846739 7.125000 0.000000 0.000000 
-0.966818 18.233147 -1.134973 -176.991845 60.286533 -138.391350 9.377776 -36.488367 -52.599339 -0.554224 7.806021 15.713380 -0.244273 7.753951 10.932901 1.162900 -6.846000 -19.259900 9.668196 11.716468 -36.600912 0.851036 -4.907854 13.883603 10.110858 -32.852728 -18.519051 -0.232400 -3.102500 8.564300 -17.534612 7.700711 45.112321 4.603293 3.860743 -38.591215 -4.928572 4.852876 -13.373936 -0.881100 3.176000 -1.547400 -54.082250 -10.699146 56.545712 160.805582 -31.675940 -116.872134 -4.228141 -4.258734 -58.705189 -7.125000 0.000000 0.000000 46.785990 9.445959 46.549770 -161.508437 28.298922 -115.617509 0.225274 3.484577 -55.929731 7.125000 0.000000 0.000000 
-0.978304 18.217315 -1.142320 -178.329426 59.419005 -139.111414 9.454752 -37.054461 -53.565497 -0.559620 7.795876 15.710103 -0.049716 7.115622 11.263338 1.194900 -6.936100 -19.526100 9.242623 11.236083 -37.063728 0.860317 -4.919190 13.886584 10.174661 -33.097903 -19.123138 -0.255400 -3.251900 8.980700 -16.940500 7.131276 45.438620 4.447707 3.600755 -38.441918 -5.247078 4.969789 -13.422479 -0.988500 3.237400 -1.541100 -55.900834 -10.737601 57.364591 160.800120 -32.061933 -116.824235 -4.150276 -4.261667 -58.837536 -7.125000 0.000000 0.000000 48.591928 9.591109 46.877996 -161.531575 28.511842 -115.591589 0.244603 3.487269 -55.958739 7.125000 0.000000 0.000000 
-0.974889 18.218350 -1.142734 -178.455446 59.527516 -139.196940 9.372280 -37.007449 -53.353303 -0.591150 7.683450 15.395686 -0.027510 7.123559 11.435635 1.160000 -6.837800 -19.235700 9.219058 11.336969 -37.343997 0.782683 -5.174377 14.632730 10.027857 -32.854932 -19.557687 -0.250000 -3.217400 8.884500 -18.401784 7.415544 44.738238 4.639513 3.485065 -38.593896 -5.105317 5.077576 -13.097602 -0.960400 3.274900 -1.475800 -57.264999 -10.590654 57.998918 160.800421 -32.377736 -116.792585 -4.076725 -4.276211 -59.063410 -7.125000 0.000000 0.000000 50.839784 9.478727 47.454175 -161.532917 28.796149 -115.553369 0.235089 3.519473 -55.850192 7.125000 0.000000 0.000000 
-0.953055 18.236873 -1.132076 -176.970156 60.287031 -138.602201 9.086424 -36.405758 -52.033684 -0.589431 7.664726 15.385677 -0.217899 7.706204 11.117816 1.142400 -6.787400 -19.087000 9.710169 11.855207 -36.742777 0.762128 -5.198738 14.683415 10.026174 -32.756061 -18.839614 -0.203900 -2.907700 8.022000 -17.682497 7.652549 45.050768 4.440410 3.783576 -39.154750 -5.003503 5.130624 -12.902973 -0.945100 3.287900 -1.455200 -58.877432 -10.603121 58.464940 160.721160 -32.800263 -116.725216 -4.000765 -4.332470 -59.195381 -7.125000 0.000000 0.000000 52.725027 9.647100 47.926070 -161.513556 29.050588 -115.513129 0.213410 3.536947 -55.922517 7.125000 0.000000 0.000000 
-1.011314 18.176750 -1.168708 178.826728 58.398905 -140.965057 9.290095 -38.287015 -54.856180 -0.588329 7.719955 15.509165 0.249038 6.196402 11.856534 1.137500 -6.773200 -19.045100 8.462889 10.059944 -37.671624 0.783123 -5.099398 14.645465 10.079858 -33.007574 -20.484013 -0.319000 -3.630400 10.039000 -21.009901 7.148814 43.528433 4.888417 2.759501 -38.489029 -4.944958 5.163565 -12.610730 -0.916200 3.296900 -1.373400 -60.118595 -10.554825 58.914489 160.638810 -33.191088 -116.662648 -3.963722 -4.392653 -59.375673 -7.125000 0.000000 0.000000 54.685963 9.488171 48.622992 -161.469953 29.342306 -115.470651 0.210524 3.552441 -56.089589 7.125000 0.000000 0.000000 
-0.951089 18.232216 -1.131765 -177.559589 60.790288 -138.796978 9.013425 -36.283058 -52.461185 -0.584660 7.814112 15.626493 -0.108004 7.378978 11.065461 1.181200 -6.897700 -19.412700 9.759912 11.505211 -36.429369 0.773623 -5.004957 14.428805 10.107795 -32.794327 -18.673717 -0.211500 -2.961100 8.170500 -23.253641 8.609591 41.694552 5.612402 3.560193 -38.704441 -4.751244 5.160404 -12.242938 -0.879300 3.284900 -1.312800 -60.985347 -10.418606 59.435355 160.641449 -33.431960 -116.646519 -3.902284 -4.389137 -59.811263 -7.125000 0.000000 0.000000 56.810137 9.454541 49.450292 -161.386563 29.683263 -115.420263 0.201790 3.572794 -56.233208 7.125000 0.000000 0.000000 
-0.949226 18.232009 -1.128351 -177.459844 60.836821 -138.761463 9.002636 -36.241575 -52.419670 -0.580090 7.836382 15.680899 -0.116884 7.393368 11.009357 1.188500 -6.918100 -19.472900 9.874535 11.421725 -36.455380 0.762185 -5.027842 14.501283 10.079837 -32.702856 -18.549663 -0.195400 -2.846500 7.851700 -23.324277 8.626369 41.660115 5.565843 3.539944 -38.814206 -4.904834 5.116009 -12.486060 -0.954800 3.273500 -1.409800 -62.208569 -10.544054 59.928197 160.568886 -33.744388 -116.594758 -3.852104 -4.374644 -60.036163 -7.125000 0.000000 0.000000 58.273862 9.617785 49.995653 -161.332273 29.912815 -115.379589 0.200510 3.587569 -56.519788 7.125000 0.000000 0.000000 
-0.948191 18.232423 -1.125350 -177.380365 60.959619 -138.707944 9.035088 -36.214515 -52.654647 -0.540855 8.006680 16.112892 -0.139163 7.353130 10.689235 1.127300 -6.743700 -18.958300 9.988776 11.210657 -36.096508 0.826476 -4.749383 13.764818 10.260918 -32.970255 -17.875601 -0.172900 -2.678300 7.384400 -23.422175 8.654304 41.622611 5.604149 3.550485 -38.845015 -5.117200 5.104097 -12.641365 -1.057600 3.272500 -1.463200 -63.106022 -10.734759 60.231676 160.462475 -34.024162 -116.539742 -3.854955 -4.418773 -60.245444 -7.125000 0.000000 0.000000 59.501304 9.779070 50.549028 -161.241309 30.149573 -115.324623 0.207157 3.613725 -56.977615 7.125000 0.000000 0.000000 
-0.947570 18.231698 -1.121935 -177.302571 60.978556 -138.672269 9.029568 -36.168961 -52.722969 -0.524615 8.075696 16.299564 -0.128917 7.261583 10.577821 1.123400 -6.732500 -18.925300 10.121490 11.064420 -36.104993 0.825606 -4.729227 13.700894 10.273319 -32.947308 -17.574350 -0.160000 -2.577300 7.103900 -23.224769 8.631705 41.733725 5.559060 3.562781 -38.899455 -5.153631 5.103600 -12.597075 -1.077900 3.269300 -1.448800 -63.707134 -11.015983 60.417043 160.396566 -34.186627 -116.512129 -3.910069 -4.444170 -60.537124 -7.125000 0.000000 0.000000 60.337147 9.934284 51.096972 -161.139765 30.357329 -115.270326 0.203383 3.630411 -57.521823 7.125000 0.000000 0.000000 
-0.942707 18.230560 -1.123901 -176.814095 61.185094 -138.222316 9.200481 -35.982722 -52.782599 -0.504222 8.151870 16.472901 -0.178752 7.413008 10.444714 1.131700 -6.756500 -18.996100 10.363366 11.057281 -36.250019 0.815373 -4.745519 13.689304 10.255640 -32.855840 -17.072416 -0.137500 -2.390000 6.584600 -22.777421 8.690863 42.009991 5.437758 3.648272 -38.828286 -5.153606 5.103720 -12.665033 -1.075400 3.270400 -1.456300 -64.054458 -11.308478 60.499615 160.342954 -34.275487 -116.490177 -3.948711 -4.455465 -60.720008 -7.125000 0.000000 0.000000 60.782778 10.155989 51.556201 -160.991397 30.565763 -115.195236 0.180503 3.640954 -57.866178 7.125000 0.000000 0.000000 
-0.943224 18.229422 -1.121417 -176.554536 61.225898 -137.988373 9.300738 -35.897357 -52.889025 -0.485878 8.216323 16.635444 -0.198969 7.469945 10.392761 1.123300 -6.732400 -18.925000 10.401755 11.183752 -36.354557 0.812218 -4.773035 13.710979 10.252008 -32.865709 -16.987729 -0.123100 -2.262200 6.230800 -22.122388 8.639596 42.370284 5.299974 3.705070 -38.829403 -5.256254 5.083416 -12.729705 -1.104100 3.262600 -1.464600 -64.097235 -11.609503 60.495529 160.290463 -34.312802 -116.468872 -3.949076 -4.460523 -60.699198 -7.125000 0.000000 0.000000 60.750368 10.343162 51.779126 -160.886817 30.680843 -115.144730 0.157558 3.640873 -58.023085 7.125000 0.000000 0.000000 
-0.951916 18.223524 -1.117796 -176.688456 60.896896 -138.172268 9.397970 -36.139531 -53.115650 -0.461607 8.263056 16.818254 -0.207610 7.418395 10.308510 1.046500 -6.505500 -18.258500 10.399027 10.965823 -36.569987 0.803803 -4.803161 13.699667 10.293385 -32.954607 -16.714723 -0.108500 -2.123500 5.847200 -20.230835 8.209439 43.726129 4.677899 3.571510 -39.394522 -5.240957 5.094664 -12.718592 -1.110200 3.258800 -1.472000 -63.962800 -12.005788 60.257937 160.216885 -34.288865 -116.442808 -3.945256 -4.446966 -60.577476 -7.125000 0.000000 0.000000 60.476605 10.613548 51.842092 -160.818544 30.708513 -115.117820 0.163832 3.627637 -58.007120 7.125000 0.000000 0.000000 
